<?xml version="1.0" encoding="UTF-8"?>
<svg width="3644px" height="513px" viewBox="0 0 3644 513" version="1.1" xmlns="http://www.w3.org/2000/svg" xmlns:xlink="http://www.w3.org/1999/xlink">
    <title>5-star-rating</title>
    <g id="Page-1" stroke="none" stroke-width="1" fill="none" fill-rule="evenodd">
        <g id="5-star-rating" transform="translate(0.000000, -0.000000)" fill="#FE8206" fill-rule="nonzero">
            <path d="M3407.75644,18 C3402.45644,7 3391.25644,0 3378.95644,0 C3366.65644,0 3355.55644,7 3350.15644,18 L3285.85644,150.3 L3142.25644,171.5 C3130.25644,173.3 3120.25644,181.7 3116.55644,193.2 C3112.85644,204.7 3115.85644,217.4 3124.45644,225.9 L3228.65644,329 L3204.05644,474.7 C3202.05644,486.7 3207.05644,498.9 3216.95644,506 C3226.85644,513.1 3239.95644,514 3250.75644,508.3 L3379.05644,439.8 L3507.35644,508.3 C3518.15644,514 3531.25644,513.2 3541.15644,506 C3551.05644,498.8 3556.05644,486.7 3554.05644,474.7 L3529.35644,329 L3633.55644,225.9 C3642.15644,217.4 3645.25644,204.7 3641.45644,193.2 C3637.65644,181.7 3627.75644,173.3 3615.75644,171.5 L3472.05644,150.3 L3407.75644,18 Z" id="Path"></path>
            <path d="M2629.75644,18 C2624.45644,7 2613.25644,0 2600.95644,0 C2588.65644,0 2577.55644,7 2572.15644,18 L2507.85644,150.3 L2364.25644,171.5 C2352.25644,173.3 2342.25644,181.7 2338.55644,193.2 C2334.85644,204.7 2337.85644,217.4 2346.45644,225.9 L2450.65644,329 L2426.05644,474.7 C2424.05644,486.7 2429.05644,498.9 2438.95644,506 C2448.85644,513.1 2461.95644,514 2472.75644,508.3 L2601.05644,439.8 L2729.35644,508.3 C2740.15644,514 2753.25644,513.2 2763.15644,506 C2773.05644,498.8 2778.05644,486.7 2776.05644,474.7 L2751.35644,329 L2855.55644,225.9 C2864.15644,217.4 2867.25644,204.7 2863.45644,193.2 C2859.65644,181.7 2849.75644,173.3 2837.75644,171.5 L2694.05644,150.3 L2629.75644,18 Z" id="Path"></path>
            <path d="M1850.75644,18 C1845.45644,7 1834.25644,0 1821.95644,0 C1809.65644,0 1798.55644,7 1793.15644,18 L1728.85644,150.3 L1585.25644,171.5 C1573.25644,173.3 1563.25644,181.7 1559.55644,193.2 C1555.85644,204.7 1558.85644,217.4 1567.45644,225.9 L1671.65644,329 L1647.05644,474.7 C1645.05644,486.7 1650.05644,498.9 1659.95644,506 C1669.85644,513.1 1682.95644,514 1693.75644,508.3 L1822.05644,439.8 L1950.35644,508.3 C1961.15644,514 1974.25644,513.2 1984.15644,506 C1994.05644,498.8 1999.05644,486.7 1997.05644,474.7 L1972.35644,329 L2076.55644,225.9 C2085.15644,217.4 2088.25644,204.7 2084.45644,193.2 C2080.65644,181.7 2070.75644,173.3 2058.75644,171.5 L1915.05644,150.3 L1850.75644,18 Z" id="Path"></path>
            <path d="M1071.75644,18 C1066.45644,7 1055.25644,0 1042.95644,0 C1030.65644,0 1019.55644,7 1014.15644,18 L949.856445,150.3 L806.256445,171.5 C794.256445,173.3 784.256445,181.7 780.556445,193.2 C776.856445,204.7 779.856445,217.4 788.456445,225.9 L892.656445,329 L868.056445,474.7 C866.056445,486.7 871.056445,498.9 880.956445,506 C890.856445,513.1 903.956445,514 914.756445,508.3 L1043.05644,439.8 L1171.35644,508.3 C1182.15644,514 1195.25644,513.2 1205.15644,506 C1215.05644,498.8 1220.05644,486.7 1218.05644,474.7 L1193.35644,329 L1297.55644,225.9 C1306.15644,217.4 1309.25644,204.7 1305.45644,193.2 C1301.65644,181.7 1291.75644,173.3 1279.75644,171.5 L1136.05644,150.3 L1071.75644,18 Z" id="Path"></path>
            <path d="M292.756445,18 C287.456445,7 276.256445,0 263.956445,0 C251.656445,0 240.556445,7 235.156445,18 L170.856445,150.3 L27.2564448,171.5 C15.2564448,173.3 5.25644478,181.7 1.55644478,193.2 C-2.14355522,204.7 0.856444781,217.4 9.45644478,225.9 L113.656445,329 L89.0564448,474.7 C87.0564448,486.7 92.0564448,498.9 101.956445,506 C111.856445,513.1 124.956445,514 135.756445,508.3 L264.056445,439.8 L392.356445,508.3 C403.156445,514 416.256445,513.2 426.156445,506 C436.056445,498.8 441.056445,486.7 439.056445,474.7 L414.356445,329 L518.556445,225.9 C527.156445,217.4 530.256445,204.7 526.456445,193.2 C522.656445,181.7 512.756445,173.3 500.756445,171.5 L357.056445,150.3 L292.756445,18 Z" id="Path"></path>
        </g>
    </g>
</svg>